# xmcd
# 
# Track frame offsets:
#     150
#     12932
#     33549
#     45822
#     62492
#     78944
#     95048
#     113936
#     131236
#     146466
#     163663
#     181480
#     203480
# 
# Disc length: 3708
# 
# Revision: 7
# Processed by: cddbd v1.5.2PL0 Copyright (c) Steve Scherf et al.
# Submitted via: fre:ac v1.1beta1pre3
# 
DISCID=a80e7a0d
DTITLE=Joe Diffie - Greatest Hits
DYEAR=1998
DGENRE=Country
TTITLE0=Third Rock From The Sun
TTITLE1=John Deere Green
TTITLE2=Texas Size Heartache
TTITLE3=Ships That Don't Come In
TTITLE4=Pickup Man
TTITLE5=So Help Me Girl
TTITLE6=Poor Me
TTITLE7=Honky Tonk Attitude
TTITLE8=Home
TTITLE9=Prop Me Up Beside The Jukebox ( If I Die )
TTITLE10=Bigger Than The Beatles
TTITLE11=Hurt Me All The Time
TTITLE12=DATA
EXTD=Enhanced CD YEAR: 1998
EXTT0=
EXTT1=
EXTT2=
EXTT3=
EXTT4=
EXTT5=
EXTT6=
EXTT7=
EXTT8=
EXTT9=
EXTT10=
EXTT11=
EXTT12=
PLAYORDER=
